<svg width="311" height="311" viewBox="0 0 311 311" fill="none" xmlns="http://www.w3.org/2000/svg">
<ellipse cx="155.5" cy="155.759" rx="155" ry="154.952" fill="#0C1033"/>
<ellipse cx="155.5" cy="155.758" rx="150" ry="149.953" fill="url(#paint0_linear_345_2)"/>
<g filter="url(#filter0_d_345_2)">
<path d="M155.814 16.1059L154.893 16.1048C135.549 16.0815 117.143 20.1255 100.493 27.4338L101.356 27.0969C84.7978 34.1892 69.7293 44.346 56.9436 57.0326C44.4428 69.5315 34.3795 84.2485 27.2682 100.431L26.9059 101.351C19.543 118.208 15.7631 136.409 15.8057 154.803L15.8045 155.805L15.8045 155.758L15.8034 156.679C15.7801 176.019 19.825 194.421 27.1349 211.067L26.798 210.204C33.888 226.752 44.0388 241.812 56.7172 254.595C69.2232 267.093 83.9474 277.154 100.137 284.263L101.057 284.626C116.828 291.635 135.223 295.723 154.568 295.747L155.535 295.748L155.489 295.748L156.409 295.749C175.754 295.772 194.16 291.728 210.81 284.42L209.947 284.757C226.507 277.668 241.579 267.515 254.371 254.833C266.872 242.334 276.935 227.617 284.046 211.434L284.409 210.514C291.42 194.748 295.509 176.368 295.532 157.016L295.534 155.175C295.558 135.835 291.513 117.433 284.203 100.787L284.54 101.65C277.443 85.1067 267.288 70.0505 254.609 57.2706C242.107 44.7727 227.387 34.7116 211.201 27.602L210.28 27.2397C194.51 20.2303 176.103 16.1303 156.746 16.107L155.779 16.1059L155.826 16.1059L155.814 16.1059ZM162.952 281.636L162.982 257.321L223.535 226.717C224.246 226.369 224.862 225.854 225.331 225.217L225.343 225.205C225.794 224.551 226.035 223.775 226.033 222.98L226.033 222.852L226.033 222.864L226.05 209.046C228.673 208.094 230.854 206.419 232.384 204.254L232.407 204.207C233.959 202.123 234.906 199.503 234.91 196.66L234.911 195.285C234.631 191.957 233.113 188.854 230.657 186.589L230.645 186.577C228.284 184.346 225.158 183.104 221.909 183.106L221.653 183.106L221.664 183.106L221.431 183.106C217.842 183.102 214.589 184.577 212.267 186.963C209.875 189.29 208.392 192.527 208.387 196.127L208.387 196.372L208.387 196.36L208.386 197.048C208.409 197.397 208.513 197.712 208.665 197.992L208.665 197.98C208.813 200.567 209.777 202.91 211.302 204.776L211.29 204.752C212.838 206.653 214.829 208.124 217.123 209L217.217 209.035L217.203 220.092L162.993 247.662L163.02 225.037L186.795 214.009C187.535 213.638 188.193 213.124 188.731 212.496L188.743 212.485C189.279 211.854 189.573 211.053 189.573 210.225L189.619 172.559L233.85 147.749C234.564 147.395 235.145 146.819 235.507 146.108L235.518 146.085C235.877 145.406 236.066 144.651 236.069 143.884L236.081 133.386C238.681 132.469 240.851 130.852 242.415 128.768L242.438 128.734C243.991 126.673 244.938 124.065 244.941 121.233L244.942 120.767C244.946 117.179 243.47 113.927 241.084 111.605C239.922 110.379 238.522 109.403 236.97 108.736C235.418 108.069 233.746 107.725 232.057 107.726L230.286 107.724C227.084 108.035 224.123 109.557 222.007 111.978L221.995 111.99C219.848 114.374 218.661 117.469 218.663 120.678L218.663 120.969L218.663 120.957L218.663 121.19C218.659 124.021 219.588 126.621 221.171 128.72L221.147 128.685C222.741 130.807 224.895 132.429 227.411 133.318L227.505 133.353L227.495 141.368L182.972 166.178C182.384 166.583 181.874 167.092 181.467 167.679L181.455 167.702C181.038 168.339 180.815 169.083 180.812 169.845L180.812 170.043L180.812 170.031L180.767 207.314L163.044 215.576L163.141 134.347L200.454 116.147C201.191 115.777 201.809 115.209 202.239 114.506L202.251 114.483C202.69 113.832 202.93 113.067 202.941 112.282L202.958 98.1843C205.558 97.267 207.728 95.6501 209.292 93.5665L209.315 93.5316C210.867 91.4713 211.814 88.8626 211.818 86.0315L211.818 85.7868L211.818 85.7985L211.819 85.0878C211.82 84.9639 211.796 84.841 211.748 84.7267C211.7 84.6125 211.629 84.5092 211.54 84.4234C211.205 81.2001 209.689 78.2146 207.285 76.0413L207.273 76.0296C204.967 73.8009 201.885 72.5563 198.677 72.559L197.186 72.5572C193.935 72.9079 190.939 74.4781 188.802 76.9511L188.79 76.9627C186.56 79.3431 185.319 82.482 185.318 85.7433L185.316 87.1763C185.686 89.8215 186.709 92.1645 188.233 94.1237L188.21 94.0887C189.688 96.0362 191.713 97.4833 194.055 98.2201L194.136 98.2435L194.123 109.568L163.153 124.723L163.21 77.7242C165.833 76.772 168.014 75.0969 169.543 72.9317L169.567 72.8851C171.119 70.8015 172.066 68.1812 172.07 65.3384L172.07 65.0588C172.074 61.4704 170.598 58.218 168.212 55.8966C167.022 54.669 165.597 53.693 164.023 53.0266C162.448 52.3603 160.755 52.0171 159.045 52.0175L158.801 52.0172L158.812 52.0172L158.579 52.017C154.99 52.0126 151.737 53.4884 149.415 55.874C147.023 58.2013 145.539 61.4384 145.535 65.0385L145.535 65.2832L145.535 65.2715L145.533 66.6463C145.88 69.2449 146.914 71.553 148.438 73.4422L148.415 73.4189C149.963 75.3198 151.954 76.7902 154.248 77.6668L154.341 77.7019L154.249 154.236L132.425 142.605L132.467 107.711C132.467 107.049 132.273 106.401 131.91 105.846L131.921 105.858C131.594 105.364 131.224 104.9 130.816 104.47L115.61 92.8246C115.979 92.1013 116.254 91.3343 116.429 90.542L116.441 90.4721C116.616 89.6917 116.722 88.8064 116.723 87.886L116.724 87.6063C116.728 84.0179 115.252 80.7656 112.866 78.4442C111.676 77.2211 110.252 76.2488 108.68 75.5846C107.107 74.9204 105.418 74.5777 103.711 74.5767L103.536 74.5765L103.548 74.5765L103.315 74.5763C99.7255 74.5719 96.4724 76.0477 94.1505 78.4333C91.7588 80.7606 90.2749 83.9977 90.2705 87.5978L90.2702 87.8425L90.2703 87.8308L90.2699 88.1104C90.2656 91.6639 91.7184 94.8813 94.058 97.2026C96.3858 99.5938 99.6237 101.077 103.225 101.082L103.469 101.082L103.458 101.082L103.632 101.082C104.776 101.086 105.911 100.895 106.989 100.515L106.919 100.539C108.202 100.062 109.251 99.5977 110.266 99.0863L110.091 99.1676L123.619 109.961L123.576 145.321C123.572 146.071 123.817 146.801 124.273 147.396L124.261 147.384C124.722 148.02 125.329 148.537 126.031 148.889L126.054 148.901L154.226 163.848L154.192 192.031L106.964 170.14L107.812 153.015L107.812 152.735C107.816 151.986 107.571 151.256 107.115 150.661L107.127 150.672C106.667 150.036 106.06 149.52 105.357 149.167L105.334 149.155L83.7773 137.828C83.964 137.237 84.0591 136.62 84.0592 135.999L84.062 133.669C83.7268 130.446 82.2113 127.46 79.807 125.287L79.7953 125.276C77.4303 123.033 74.2955 121.783 71.0361 121.781L70.8264 121.781L70.838 121.781L70.7565 121.781C67.2022 121.777 63.9957 123.253 61.7204 125.638C59.2937 127.965 57.7748 131.237 57.7704 134.861L57.7702 135.036L57.7702 135.024L57.7686 136.399C58.1025 139.72 59.6722 142.623 62.0238 144.676L62.0354 144.688C64.282 146.753 67.2871 148.014 70.5967 148.018L72.1233 148.02C73.4389 147.852 74.73 147.529 75.9701 147.058L75.8535 147.093C77.066 146.628 78.1272 146.024 79.0604 145.279L79.037 145.302L98.9171 155.579L98.3487 172.705L98.3486 172.798C98.3475 173.672 98.5447 174.488 98.905 175.222L98.8934 175.187C99.3052 175.955 99.9846 176.544 100.803 176.844L100.826 176.856L154.134 201.783L154.037 281.812C151.644 281.809 149.294 281.713 146.987 281.524L139.938 280.968L140.826 230.125C140.816 229.33 140.574 228.557 140.13 227.898L140.141 227.91C139.655 227.156 138.941 226.576 138.104 226.253L138.081 226.242L104.654 210.729L104.656 209.273C104.66 205.719 103.184 202.513 100.798 200.239C99.6077 199.011 98.183 198.035 96.6083 197.369C95.0337 196.702 93.3411 196.359 91.6311 196.36L91.3864 196.359L91.3981 196.359L90.0696 196.358C86.8682 196.668 83.9065 198.19 81.7905 200.612L81.7788 200.624C79.6316 203.008 78.4446 206.103 78.4471 209.311L78.4468 209.602L78.4468 209.591L78.4467 209.672C78.4424 213.226 79.9185 216.431 82.3048 218.706C84.5743 221.097 87.7772 222.581 91.3315 222.585L91.786 222.586C93.6039 222.588 95.3407 222.206 96.9031 221.497L96.8215 221.532C98.454 220.753 99.8652 219.823 101.125 218.717L101.102 218.741L132.036 232.875L131.98 279.572C117.429 276.845 103.487 271.529 90.8156 263.875L91.3746 264.19C79.1448 256.917 68.2308 247.631 59.0927 236.725L58.9298 236.527C49.9277 225.67 42.7623 213.414 37.7176 200.244L37.4157 199.358C32.1751 185.594 29.522 170.98 29.5899 156.253L29.5915 154.96C29.6125 137.553 33.2916 121.002 39.9055 106.027L39.6016 106.807C46.0358 91.8661 55.2416 78.278 66.7324 66.7611C78.0585 55.5108 91.3838 46.4708 106.025 40.1048L106.853 39.7796C122.073 33.1658 138.503 29.7893 155.098 29.8646L155.809 29.8655L155.774 29.8654L156.52 29.8663C173.93 29.8873 190.485 33.5656 205.464 40.178L204.683 39.8741C219.622 46.2974 233.212 55.4845 244.738 66.9522C256.012 78.2684 265.071 91.5918 271.447 106.236L271.773 107.063C278.048 121.262 281.688 137.822 281.667 155.24L281.666 156.02L281.666 155.985L281.665 156.731C281.645 173.555 278.223 189.582 272.052 204.162L272.356 203.358C266.348 217.881 257.743 231.188 246.962 242.626L247.021 242.556C236.434 253.727 223.896 262.872 210.023 269.541L209.266 269.866C195.74 276.468 179.933 280.69 163.244 281.567L162.941 281.578L162.952 281.636Z" fill="black"/>
<path d="M155.814 16.1059L154.893 16.1048C135.549 16.0815 117.143 20.1255 100.493 27.4338L101.356 27.0969C84.7978 34.1892 69.7293 44.346 56.9436 57.0326C44.4428 69.5315 34.3795 84.2485 27.2682 100.431L26.9059 101.351C19.543 118.208 15.7631 136.409 15.8057 154.803L15.8045 155.805L15.8045 155.758L15.8034 156.679C15.7801 176.019 19.825 194.421 27.1349 211.067L26.798 210.204C33.888 226.752 44.0388 241.812 56.7172 254.595C69.2232 267.093 83.9474 277.154 100.137 284.263L101.057 284.626C116.828 291.635 135.223 295.723 154.568 295.747L155.535 295.748L155.489 295.748L156.409 295.749C175.754 295.772 194.16 291.728 210.81 284.42L209.947 284.757C226.507 277.668 241.579 267.515 254.371 254.833C266.872 242.334 276.935 227.617 284.046 211.434L284.409 210.514C291.42 194.748 295.509 176.368 295.532 157.016L295.534 155.175C295.558 135.835 291.513 117.433 284.203 100.787L284.54 101.65C277.443 85.1067 267.288 70.0505 254.609 57.2706C242.107 44.7727 227.387 34.7116 211.201 27.602L210.28 27.2397C194.51 20.2303 176.103 16.1303 156.746 16.107L155.779 16.1059L155.826 16.1059L155.814 16.1059ZM162.952 281.636L162.982 257.321L223.535 226.717C224.246 226.369 224.862 225.854 225.331 225.217L225.343 225.205C225.794 224.551 226.035 223.775 226.033 222.98L226.033 222.852L226.033 222.864L226.05 209.046C228.673 208.094 230.854 206.419 232.384 204.254L232.407 204.207C233.959 202.123 234.906 199.503 234.91 196.66L234.911 195.285C234.631 191.957 233.113 188.854 230.657 186.589L230.645 186.577C228.284 184.346 225.158 183.104 221.909 183.106L221.653 183.106L221.664 183.106L221.431 183.106C217.842 183.102 214.589 184.577 212.267 186.963C209.875 189.29 208.392 192.527 208.387 196.127L208.387 196.372L208.387 196.36L208.386 197.048C208.409 197.397 208.513 197.712 208.665 197.992L208.665 197.98C208.813 200.567 209.777 202.91 211.302 204.776L211.29 204.752C212.838 206.653 214.829 208.124 217.123 209L217.217 209.035L217.203 220.092L162.993 247.662L163.02 225.037L186.795 214.009C187.535 213.638 188.193 213.124 188.731 212.496L188.743 212.485C189.279 211.854 189.573 211.053 189.573 210.225L189.619 172.559L233.85 147.749C234.564 147.395 235.145 146.819 235.507 146.108L235.518 146.085C235.877 145.406 236.066 144.651 236.069 143.884L236.081 133.386C238.681 132.469 240.851 130.852 242.415 128.768L242.438 128.734C243.991 126.673 244.938 124.065 244.941 121.233L244.942 120.767C244.946 117.179 243.47 113.927 241.084 111.605C239.922 110.379 238.522 109.403 236.97 108.736C235.418 108.069 233.746 107.725 232.057 107.726L230.286 107.724C227.084 108.035 224.123 109.557 222.007 111.978L221.995 111.99C219.848 114.374 218.661 117.469 218.663 120.678L218.663 120.969L218.663 120.957L218.663 121.19C218.659 124.021 219.588 126.621 221.171 128.72L221.147 128.685C222.741 130.807 224.895 132.429 227.411 133.318L227.505 133.353L227.495 141.368L182.972 166.178C182.384 166.583 181.874 167.092 181.467 167.679L181.455 167.702C181.038 168.339 180.815 169.083 180.812 169.845L180.812 170.043L180.812 170.031L180.767 207.314L163.044 215.576L163.141 134.347L200.454 116.147C201.191 115.777 201.809 115.209 202.239 114.506L202.251 114.483C202.69 113.832 202.93 113.067 202.941 112.282L202.958 98.1843C205.558 97.267 207.728 95.6501 209.292 93.5665L209.315 93.5316C210.867 91.4713 211.814 88.8626 211.818 86.0315L211.818 85.7868L211.818 85.7985L211.819 85.0878C211.82 84.9639 211.796 84.841 211.748 84.7267C211.7 84.6125 211.629 84.5092 211.54 84.4234C211.205 81.2001 209.689 78.2146 207.285 76.0413L207.273 76.0296C204.967 73.8009 201.885 72.5563 198.677 72.559L197.186 72.5572C193.935 72.9079 190.939 74.4781 188.802 76.9511L188.79 76.9627C186.56 79.3431 185.319 82.482 185.318 85.7433L185.316 87.1763C185.686 89.8215 186.709 92.1645 188.233 94.1237L188.21 94.0887C189.688 96.0362 191.713 97.4833 194.055 98.2201L194.136 98.2435L194.123 109.568L163.153 124.723L163.21 77.7242C165.833 76.772 168.014 75.0969 169.543 72.9317L169.567 72.8851C171.119 70.8015 172.066 68.1812 172.07 65.3384L172.07 65.0588C172.074 61.4704 170.598 58.218 168.212 55.8966C167.022 54.669 165.597 53.693 164.023 53.0266C162.448 52.3603 160.755 52.0171 159.045 52.0175L158.801 52.0172L158.812 52.0172L158.579 52.017C154.99 52.0126 151.737 53.4884 149.415 55.874C147.023 58.2013 145.539 61.4384 145.535 65.0385L145.535 65.2832L145.535 65.2715L145.533 66.6463C145.88 69.2449 146.914 71.553 148.438 73.4422L148.415 73.4189C149.963 75.3198 151.954 76.7902 154.248 77.6668L154.341 77.7019L154.249 154.236L132.425 142.605L132.467 107.711C132.467 107.049 132.273 106.401 131.91 105.846L131.921 105.858C131.594 105.364 131.224 104.9 130.816 104.47L115.61 92.8246C115.979 92.1013 116.254 91.3343 116.429 90.542L116.441 90.4721C116.616 89.6917 116.722 88.8064 116.723 87.886L116.724 87.6063C116.728 84.0179 115.252 80.7656 112.866 78.4442C111.676 77.2211 110.252 76.2488 108.68 75.5846C107.107 74.9204 105.418 74.5777 103.711 74.5767L103.536 74.5765L103.548 74.5765L103.315 74.5763C99.7255 74.5719 96.4724 76.0477 94.1505 78.4333C91.7588 80.7606 90.2749 83.9977 90.2705 87.5978L90.2702 87.8425L90.2703 87.8308L90.2699 88.1104C90.2656 91.6639 91.7184 94.8813 94.058 97.2026C96.3858 99.5938 99.6237 101.077 103.225 101.082L103.469 101.082L103.458 101.082L103.632 101.082C104.776 101.086 105.911 100.895 106.989 100.515L106.919 100.539C108.202 100.062 109.251 99.5977 110.266 99.0863L110.091 99.1676L123.619 109.961L123.576 145.321C123.572 146.071 123.817 146.801 124.273 147.396L124.261 147.384C124.722 148.02 125.329 148.537 126.031 148.889L126.054 148.901L154.226 163.848L154.192 192.031L106.964 170.14L107.812 153.015L107.812 152.735C107.816 151.986 107.571 151.256 107.115 150.661L107.127 150.672C106.667 150.036 106.06 149.52 105.357 149.167L105.334 149.155L83.7773 137.828C83.964 137.237 84.0591 136.62 84.0592 135.999L84.062 133.669C83.7268 130.446 82.2113 127.46 79.807 125.287L79.7953 125.276C77.4303 123.033 74.2955 121.783 71.0361 121.781L70.8264 121.781L70.838 121.781L70.7565 121.781C67.2022 121.777 63.9957 123.253 61.7204 125.638C59.2937 127.965 57.7748 131.237 57.7704 134.861L57.7702 135.036L57.7702 135.024L57.7686 136.399C58.1025 139.72 59.6722 142.623 62.0238 144.676L62.0354 144.688C64.282 146.753 67.2871 148.014 70.5967 148.018L72.1233 148.02C73.4389 147.852 74.73 147.529 75.9701 147.058L75.8535 147.093C77.066 146.628 78.1272 146.024 79.0604 145.279L79.037 145.302L98.9171 155.579L98.3487 172.705L98.3486 172.798C98.3475 173.672 98.5447 174.488 98.905 175.222L98.8934 175.187C99.3052 175.955 99.9846 176.544 100.803 176.844L100.826 176.856L154.134 201.783L154.037 281.812C151.644 281.809 149.294 281.713 146.987 281.524L139.938 280.968L140.826 230.125C140.816 229.33 140.574 228.557 140.13 227.898L140.141 227.91C139.655 227.156 138.941 226.576 138.104 226.253L138.081 226.242L104.654 210.729L104.656 209.273C104.66 205.719 103.184 202.513 100.798 200.239C99.6077 199.011 98.183 198.035 96.6083 197.369C95.0337 196.702 93.3411 196.359 91.6311 196.36L91.3864 196.359L91.3981 196.359L90.0696 196.358C86.8682 196.668 83.9065 198.19 81.7905 200.612L81.7788 200.624C79.6316 203.008 78.4446 206.103 78.4471 209.311L78.4468 209.602L78.4468 209.591L78.4467 209.672C78.4424 213.226 79.9185 216.431 82.3048 218.706C84.5743 221.097 87.7772 222.581 91.3315 222.585L91.786 222.586C93.6039 222.588 95.3407 222.206 96.9031 221.497L96.8215 221.532C98.454 220.753 99.8652 219.823 101.125 218.717L101.102 218.741L132.036 232.875L131.98 279.572C117.429 276.845 103.487 271.529 90.8156 263.875L91.3746 264.19C79.1448 256.917 68.2308 247.631 59.0927 236.725L58.9298 236.527C49.9277 225.67 42.7623 213.414 37.7176 200.244L37.4157 199.358C32.1751 185.594 29.522 170.98 29.5899 156.253L29.5915 154.96C29.6125 137.553 33.2916 121.002 39.9055 106.027L39.6016 106.807C46.0358 91.8661 55.2416 78.278 66.7324 66.7611C78.0585 55.5108 91.3838 46.4708 106.025 40.1048L106.853 39.7796C122.073 33.1658 138.503 29.7893 155.098 29.8646L155.809 29.8655L155.774 29.8654L156.52 29.8663C173.93 29.8873 190.485 33.5656 205.464 40.178L204.683 39.8741C219.622 46.2974 233.212 55.4845 244.738 66.9522C256.012 78.2684 265.071 91.5918 271.447 106.236L271.773 107.063C278.048 121.262 281.688 137.822 281.667 155.24L281.666 156.02L281.666 155.985L281.665 156.731C281.645 173.555 278.223 189.582 272.052 204.162L272.356 203.358C266.348 217.881 257.743 231.188 246.962 242.626L247.021 242.556C236.434 253.727 223.896 262.872 210.023 269.541L209.266 269.866C195.74 276.468 179.933 280.69 163.244 281.567L162.941 281.578L162.952 281.636Z" stroke="black"/>
</g>
<defs>
<filter id="filter0_d_345_2" x="15.3032" y="11.6047" width="294.731" height="288.644" filterUnits="userSpaceOnUse" color-interpolation-filters="sRGB">
<feFlood flood-opacity="0" result="BackgroundImageFix"/>
<feColorMatrix in="SourceAlpha" type="matrix" values="0 0 0 0 0 0 0 0 0 0 0 0 0 0 0 0 0 0 127 0" result="hardAlpha"/>
<feOffset dx="10"/>
<feGaussianBlur stdDeviation="2"/>
<feComposite in2="hardAlpha" operator="out"/>
<feColorMatrix type="matrix" values="0 0 0 0 0 0 0 0 0 0 0 0 0 0 0 0 0 0 0.3 0"/>
<feBlend mode="normal" in2="BackgroundImageFix" result="effect1_dropShadow_345_2"/>
<feBlend mode="normal" in="SourceGraphic" in2="effect1_dropShadow_345_2" result="shape"/>
</filter>
<linearGradient id="paint0_linear_345_2" x1="155.5" y1="5.80542" x2="155.5" y2="305.712" gradientUnits="userSpaceOnUse">
<stop stop-color="white"/>
<stop offset="1" stop-color="#D7D7D7" stop-opacity="0.11"/>
</linearGradient>
</defs>
</svg>
