<svg width="32" height="32" viewBox="0 0 32 32" fill="none" xmlns="http://www.w3.org/2000/svg">
<path d="M28.4444 -6.10352e-05C29.3874 -6.10352e-05 30.2918 0.374541 30.9586 1.04134C31.6254 1.70813 32 2.6125 32 3.55549V28.4444C32 29.3874 31.6254 30.2917 30.9586 30.9585C30.2918 31.6253 29.3874 31.9999 28.4444 31.9999H3.55553C2.61254 31.9999 1.70817 31.6253 1.04138 30.9585C0.374579 30.2917 -2.28882e-05 29.3874 -2.28882e-05 28.4444V3.55549C-2.28882e-05 2.6125 0.374579 1.70813 1.04138 1.04134C1.70817 0.374541 2.61254 -6.10352e-05 3.55553 -6.10352e-05H28.4444ZM27.5555 27.5555V18.1333C27.5555 16.5962 26.9449 15.1221 25.8581 14.0352C24.7712 12.9483 23.2971 12.3377 21.76 12.3377C20.2489 12.3377 18.4889 13.2622 17.6355 14.6488V12.6755H12.6755V27.5555H17.6355V18.791C17.6355 17.4222 18.7378 16.3022 20.1066 16.3022C20.7667 16.3022 21.3998 16.5644 21.8666 17.0311C22.3333 17.4979 22.5955 18.131 22.5955 18.791V27.5555H27.5555ZM6.89776 9.88438C7.68987 9.88438 8.44954 9.56972 9.00965 9.00961C9.56976 8.4495 9.88442 7.68983 9.88442 6.89772C9.88442 5.24438 8.55109 3.89327 6.89776 3.89327C6.10093 3.89327 5.33673 4.20981 4.77329 4.77325C4.20985 5.3367 3.89331 6.10089 3.89331 6.89772C3.89331 8.55105 5.24442 9.88438 6.89776 9.88438ZM9.36887 27.5555V12.6755H4.44442V27.5555H9.36887Z" fill="white"/>
</svg>
