<svg width="32" height="32" viewBox="0 0 32 32" fill="none" xmlns="http://www.w3.org/2000/svg">
<path d="M27.3367 4.65608C25.8624 3.17437 24.1064 1.99956 22.1711 1.20017C20.2357 0.400789 18.1598 -0.00716816 16.0643 9.53111e-05C7.28442 9.53111e-05 0.128643 7.12007 0.128643 15.856C0.128643 18.656 0.868342 21.376 2.25126 23.776L0 32L8.44221 29.792C10.7739 31.056 13.395 31.728 16.0643 31.728C24.8442 31.728 32 24.608 32 15.872C32 11.6321 30.3437 7.64807 27.3367 4.65608ZM16.0643 29.04C13.6844 29.04 11.3528 28.4 9.31055 27.2L8.82814 26.912L3.81106 28.224L5.14573 23.36L4.82412 22.864C3.5019 20.7632 2.79982 18.3348 2.79799 15.856C2.79799 8.59207 8.74774 2.67209 16.0482 2.67209C19.5859 2.67209 22.9146 4.04808 25.407 6.54408C26.6412 7.76641 27.6192 9.22033 28.2845 10.8215C28.9497 12.4228 29.2889 14.1394 29.2824 15.872C29.3146 23.136 23.3648 29.04 16.0643 29.04ZM23.3327 19.184C22.9307 18.992 20.9688 18.032 20.6151 17.888C20.2452 17.76 19.9879 17.696 19.7146 18.08C19.4412 18.48 18.6854 19.376 18.4603 19.632C18.2352 19.904 17.994 19.936 17.592 19.728C17.1899 19.536 15.9035 19.104 14.392 17.76C13.202 16.704 12.4141 15.408 12.1729 15.0081C11.9477 14.6081 12.1407 14.4001 12.3497 14.1921C12.5266 14.0161 12.7518 13.7281 12.9447 13.5041C13.1377 13.2801 13.2181 13.1041 13.3467 12.8481C13.4754 12.5761 13.4111 12.3521 13.3146 12.1601C13.2181 11.9681 12.4141 10.0161 12.0925 9.21607C11.7709 8.44807 11.4332 8.54407 11.192 8.52807H10.4201C10.1467 8.52807 9.72864 8.62407 9.35879 9.02407C9.00502 9.42407 7.97588 10.3841 7.97588 12.3361C7.97588 14.2881 9.40703 16.176 9.6 16.432C9.79296 16.704 12.4141 20.704 16.402 22.416C17.3508 22.832 18.0905 23.072 18.6693 23.248C19.6181 23.552 20.4864 23.504 21.1779 23.408C21.9497 23.296 23.5417 22.448 23.8633 21.52C24.201 20.592 24.201 19.808 24.0884 19.632C23.9759 19.456 23.7347 19.376 23.3327 19.184Z" fill="white"/>
</svg>
